# xmcd
#
# Track frame offsets:
#	150
#	20177
#	40206
#	54567
#	70123
#	84990
#	105625
#	120568
#	136347
#	149868
#	168135
#	185796
#	204292
#	221035
#	237691
#	254973
#	269607
#	286316
#	302504
#
# Disc length: 4236 seconds
#
# Revision: 1
# Processed by: cddbd v1.5.2PL0 Copyright (c) Steve Scherf et al.
# Submitted via: audiograbber 1.83.01
#
DISCID=2f108a13
DTITLE=Various Artist - Hott Country 143
DYEAR=2008
DGENRE=Country
TTITLE0=Kenny Chesney Feat George Strait - Shiftwork
TTITLE1=Luke Bryan - We Rode In Trucks
TTITLE2=Whiskey Falls - Falling Into You
TTITLE3=Billy Ray Cyrus Feat Miley Cyrus - Ready Set Don't Go ( Radio Edit )
TTITLE4=Jack Ingram - Maybe She'll Get Lonely
TTITLE5=Dry Country - Waitin' On Hank ( Clean Edit )
TTITLE6=Emerson Drive - Everyday Woman
TTITLE7=Carrie Underwood - All American Woman
TTITLE8=Miranda Lambert - Gunpowder And Lead ( Single )
TTITLE9=Paul Brandy - That's Worth Fighting For
TTITLE10=Phil Vassar - Love Is A Beautiful Thing
TTITLE11=Sara Evans - Some Things Never Change
TTITLE12=Halfway To Hazard - Devil And The Cross
TTITLE13=Trace Adkins - You're Gonna Miss This
TTITLE14=Rick Tippe - Long Way To Paradise
TTITLE15=Anne Murray Feat Amy Grant - Could I Have This Dance
TTITLE16=Keith Urban - Romeo's Theme
TTITLE17=Cole Degg's And The Lonesome - Girl Next Door
TTITLE18=Marshall Tucker Band - Can't See You ( 1975 )
EXTD=January 2008
EXTT0=
EXTT1=
EXTT2=
EXTT3=
EXTT4=
EXTT5=
EXTT6=
EXTT7=
EXTT8=
EXTT9=
EXTT10=
EXTT11=
EXTT12=
EXTT13=
EXTT14=
EXTT15=
EXTT16=
EXTT17=
EXTT18=
PLAYORDER=
